<svg width="53" height="46" viewBox="0 0 53 46" fill="none" xmlns="http://www.w3.org/2000/svg">
<path d="M38.0117 42.9883C38.0117 43.9727 37.3438 44.4648 36.0078 44.4648H29.082V38.5938C25.6602 43.2812 21.3125 45.625 16.0391 45.625C13.2266 45.625 10.6133 44.8867 8.19922 43.4102C5.78516 41.9336 3.91016 39.9414 2.57422 37.4336C1.14453 34.8086 0.429688 32.1016 0.429688 29.3125C0.429688 26.4531 1.14453 23.7344 2.57422 21.1562C4.00391 18.5547 5.9375 16.5391 8.375 15.1094C10.8125 13.6797 13.3789 12.9648 16.0742 12.9648C21.2305 12.9648 25.5664 15.3086 29.082 19.9961V3.33203H25.1445C23.8086 3.33203 23.1406 2.82813 23.1406 1.82031C23.1406 0.835938 23.8086 0.34375 25.1445 0.34375H32.0703V41.5117H36.0078C37.3438 41.5117 38.0117 42.0039 38.0117 42.9883ZM29.082 29.3125C29.082 25.6562 27.8516 22.5156 25.3906 19.8906C22.9297 17.2656 19.8828 15.9531 16.25 15.9531C12.6172 15.9531 9.55859 17.2656 7.07422 19.8906C4.61328 22.5156 3.38281 25.6562 3.38281 29.3125C3.38281 32.9688 4.61328 36.1094 7.07422 38.7344C9.55859 41.3594 12.6172 42.6719 16.25 42.6719C19.8594 42.6719 22.918 41.3477 25.4258 38.6992C27.8633 36.0742 29.082 32.9453 29.082 29.3125ZM52.4384 40.2461C52.4384 41.5117 51.9697 42.6133 51.0322 43.5508C50.1181 44.4648 49.0166 44.9219 47.7275 44.9219C46.4619 44.9219 45.3838 44.4648 44.4931 43.5508C43.6025 42.6133 43.1572 41.5117 43.1572 40.2461C43.1572 38.9805 43.6025 37.8906 44.4931 36.9766C45.3838 36.0391 46.4619 35.5703 47.7275 35.5703C49.0166 35.5703 50.1181 36.0391 51.0322 36.9766C51.9697 37.8906 52.4384 38.9805 52.4384 40.2461Z" fill="#F80332"/>
</svg>
